<mxfile host="Electron" modified="2023-07-29T12:49:01.186Z" agent="Mozilla/5.0 (Windows NT 10.0; Win64; x64) AppleWebKit/537.36 (KHTML, like Gecko) draw.io/21.6.1 Chrome/112.0.5615.204 Electron/24.6.1 Safari/537.36" etag="onz5V93LG0Z5PNDh0mkr" version="21.6.1" type="device">
  <diagram name="Page-1" id="MSWord-f3Ex53MhFXIVw">
    <mxGraphModel dx="605" dy="351" grid="1" gridSize="10" guides="1" tooltips="1" connect="1" arrows="1" fold="1" page="1" pageScale="1" pageWidth="120" pageHeight="220" math="0" shadow="0">
      <root>
        <mxCell id="0" />
        <mxCell id="1" parent="0" />
        <mxCell id="0Ugj_9mby8w8q8zqJfSq-1" value="" style="rounded=1;whiteSpace=wrap;html=1;" parent="1" vertex="1">
          <mxGeometry width="120" height="220" as="geometry" />
        </mxCell>
        <mxCell id="0Ugj_9mby8w8q8zqJfSq-2" value="" style="endArrow=none;html=1;rounded=0;endSize=0;startSize=0;" parent="1" edge="1">
          <mxGeometry width="50" height="50" relative="1" as="geometry">
            <mxPoint y="190" as="sourcePoint" />
            <mxPoint x="120" y="190" as="targetPoint" />
          </mxGeometry>
        </mxCell>
        <mxCell id="0Ugj_9mby8w8q8zqJfSq-5" value="" style="ellipse;whiteSpace=wrap;html=1;aspect=fixed;" parent="1" vertex="1">
          <mxGeometry x="55" y="200" width="10" height="10" as="geometry" />
        </mxCell>
        <mxCell id="0Ugj_9mby8w8q8zqJfSq-6" value="" style="triangle;whiteSpace=wrap;html=1;rotation=-180;" parent="1" vertex="1">
          <mxGeometry x="20" y="200" width="10" height="10" as="geometry" />
        </mxCell>
        <mxCell id="0Ugj_9mby8w8q8zqJfSq-8" value="" style="whiteSpace=wrap;html=1;aspect=fixed;" parent="1" vertex="1">
          <mxGeometry x="90" y="200" width="10" height="10" as="geometry" />
        </mxCell>
        <mxCell id="0Ugj_9mby8w8q8zqJfSq-15" value="&lt;font style=&quot;font-size: 7px;&quot;&gt;Continue&lt;/font&gt;" style="text;html=1;strokeColor=none;fillColor=none;align=left;verticalAlign=middle;whiteSpace=wrap;rounded=0;" parent="1" vertex="1">
          <mxGeometry x="20" y="140" width="60" height="10" as="geometry" />
        </mxCell>
        <mxCell id="0Ugj_9mby8w8q8zqJfSq-17" value="&lt;font style=&quot;font-size: 10px;&quot;&gt;&lt;i&gt;Button&lt;/i&gt;&lt;/font&gt;" style="rounded=0;whiteSpace=wrap;html=1;" parent="1" vertex="1">
          <mxGeometry x="25" y="160" width="70" height="20" as="geometry" />
        </mxCell>
        <mxCell id="zTx-gBKIpwaR7cAXgnoJ-2" value="&lt;h1 style=&quot;font-size: 10px;&quot;&gt;Heading&lt;/h1&gt;&lt;p style=&quot;font-size: 10px;&quot;&gt;&lt;font style=&quot;font-size: 10px;&quot;&gt;Lorem ipsum dolor sit amet, consectetur adipisicing elit, sed do eiusmod tempor incididunt ut labore et dolore magna aliqua.&lt;/font&gt;&lt;/p&gt;" style="text;html=1;strokeColor=none;fillColor=none;spacing=5;spacingTop=-20;whiteSpace=wrap;overflow=hidden;rounded=0;" vertex="1" parent="1">
          <mxGeometry x="15" y="20" width="90" height="120" as="geometry" />
        </mxCell>
      </root>
    </mxGraphModel>
  </diagram>
</mxfile>
